<?xml version="1.0" encoding="iso-8859-1"?>
<!-- Generator: Adobe Illustrator 19.0.0, SVG Export Plug-In . SVG Version: 6.00 Build 0)  -->
<svg version="1.1" id="Layer_1" xmlns="http://www.w3.org/2000/svg" xmlns:xlink="http://www.w3.org/1999/xlink" x="0px" y="0px"
	 viewBox="0 0 512 512" style="enable-background:new 0 0 512 512;" xml:space="preserve">
<g>
	<g>
		<path d="M416,21.333H96c-52.928,0-96,43.072-96,96V288c0,52.949,43.072,96,96,96h52.011c17.408,0,33.728,8.491,43.691,22.741
			l55.552,79.36c2.005,2.837,5.269,4.565,8.747,4.565s6.741-1.707,8.747-4.544l55.552-79.36
			C330.261,392.491,346.603,384,363.989,384H416c52.928,0,96-43.072,96-96V117.333C512,64.405,468.928,21.333,416,21.333z
			 M490.667,288c0,41.173-33.493,74.667-74.667,74.667h-52.011c-24.363,0-47.211,11.904-61.163,31.851L256,461.397l-46.827-66.88
			c-13.952-19.968-36.8-31.851-61.163-31.851H96c-41.173,0-74.667-33.493-74.667-74.667V117.333
			c0-41.173,33.493-74.667,74.667-74.667h320c41.173,0,74.667,33.493,74.667,74.667V288z"/>
	</g>
</g>
<g>
</g>
<g>
</g>
<g>
</g>
<g>
</g>
<g>
</g>
<g>
</g>
<g>
</g>
<g>
</g>
<g>
</g>
<g>
</g>
<g>
</g>
<g>
</g>
<g>
</g>
<g>
</g>
<g>
</g>
</svg>
